<svg id="Layer_1" enable-background="new 0 0 512.063 512.063" height="512" viewBox="0 0 512.063 512.063" width="512" xmlns="http://www.w3.org/2000/svg"><g><path d="m208.061 344.02v-88c0-8.837 7.164-16 16-16s16 7.163 16 16v55.081l70.103-55.08-95.988-75.42c-6.948-5.46-8.155-15.518-2.696-22.466 5.459-6.949 15.519-8.155 22.466-2.696l112 88.001c8.155 6.407 8.141 18.766 0 25.162l-112 87.999c-10.408 8.175-25.885.815-25.885-12.581z"/></g><g><path d="m496.061 273.046c-8.945 0-16.097-7.305-16.002-16.171.006-.572.006-1.138 0-1.709-.094-8.836 6.992-16.075 15.828-16.17 8.638-.146 16.074 6.853 16.17 15.828.009.8.009 1.592 0 2.393-.094 8.778-7.239 15.829-15.996 15.829z"/></g><g><path d="m75.039 437.04c-100.045-100.044-100.06-261.979 0-362.038 57.477-57.479 136.37-82.594 213.02-72.982 110.897 13.896 194.632 96.384 217.557 196.787 1.967 8.615-3.422 17.193-12.037 19.16-8.614 1.966-17.193-3.422-19.16-12.037-20.095-88.01-93.538-160.029-190.34-172.158-134.31-16.836-252.021 87.717-252.021 222.25 0 156.286 155.097 262.071 298.904 211.162 70.981-25.102 126.494-85.653 143.618-161.778 1.94-8.621 10.502-14.033 19.121-12.099 8.621 1.939 14.038 10.5 12.099 19.122-43.901 195.166-287.752 267.621-430.761 124.611z"/></g></svg>